<?xml version="1.0" encoding="UTF-8"?>
<svg id="Layer_1" data-name="Layer 1" xmlns="http://www.w3.org/2000/svg" viewBox="0 0 2160 1460">
  <defs>
    <style>
      .cls-1 {
        fill: #004b70;
      }

      .cls-1, .cls-2, .cls-3 {
        stroke-width: 0px;
      }

      .cls-2 {
        fill: #000100;
      }

      .cls-3 {
        fill: #f3af32;
      }
    </style>
  </defs>
  <g>
    <path class="cls-2" d="M101.83,1403.93c-3.45,3.91-7.98,6.99-13.59,9.25-5.61,2.26-12,3.38-19.18,3.38-12.05,0-21.43-2.81-28.15-8.42-6.72-5.61-10.12-13.57-10.21-23.87h32.56c-.55,5.61,1.47,8.42,6.07,8.42,1.75,0,3.22-.5,4.42-1.52,1.2-1.01,1.79-2.48,1.79-4.42,0-2.21-1.08-4.05-3.24-5.52-2.16-1.47-5.59-3.22-10.28-5.24-5.15-2.12-9.45-4.21-12.9-6.28-3.45-2.07-6.42-4.92-8.9-8.56-2.48-3.63-3.73-8.16-3.73-13.59,0-1.93.23-4.28.69-7.04,1.38-7.73,5.68-13.7,12.9-17.94,7.22-4.23,15.75-6.35,25.6-6.35,12.6,0,21.98,2.76,28.15,8.28,6.16,5.52,9.38,13.29,9.66,23.32h-32.98c.46-5.15-1.2-7.73-4.97-7.73-1.47,0-2.74.48-3.79,1.45-1.06.97-1.59,2.37-1.59,4.21,0,2.02,1.03,3.7,3.1,5.04,2.07,1.33,5.36,2.92,9.87,4.76,5.24,2.12,9.59,4.16,13.04,6.14,3.45,1.98,6.44,4.78,8.97,8.42,2.53,3.64,3.8,8.21,3.8,13.73,0,1.93-.23,4.28-.69,7.04-.83,4.78-2.97,9.13-6.42,13.04Z"/>
    <path class="cls-2" d="M189.1,1317.89l-17.11,97.69h-30.63l17.11-97.69h30.63Z"/>
    <path class="cls-2" d="M287.14,1403.93c-3.45,3.91-7.98,6.99-13.59,9.25-5.61,2.26-12,3.38-19.18,3.38-12.05,0-21.43-2.81-28.15-8.42-6.72-5.61-10.12-13.57-10.21-23.87h32.56c-.55,5.61,1.47,8.42,6.07,8.42,1.75,0,3.22-.5,4.42-1.52,1.2-1.01,1.79-2.48,1.79-4.42,0-2.21-1.08-4.05-3.24-5.52-2.16-1.47-5.59-3.22-10.28-5.24-5.15-2.12-9.45-4.21-12.9-6.28-3.45-2.07-6.42-4.92-8.9-8.56-2.48-3.63-3.73-8.16-3.73-13.59,0-1.93.23-4.28.69-7.04,1.38-7.73,5.68-13.7,12.9-17.94,7.22-4.23,15.75-6.35,25.6-6.35,12.6,0,21.98,2.76,28.15,8.28,6.16,5.52,9.38,13.29,9.66,23.32h-32.98c.46-5.15-1.2-7.73-4.97-7.73-1.47,0-2.74.48-3.79,1.45-1.06.97-1.59,2.37-1.59,4.21,0,2.02,1.03,3.7,3.1,5.04,2.07,1.33,5.36,2.92,9.87,4.76,5.24,2.12,9.59,4.16,13.04,6.14,3.45,1.98,6.44,4.78,8.97,8.42,2.53,3.64,3.8,8.21,3.8,13.73,0,1.93-.23,4.28-.69,7.04-.83,4.78-2.97,9.13-6.42,13.04Z"/>
    <path class="cls-2" d="M362.69,1384.54l-5.38,31.05h-30.63l17.11-97.69h42.78c10.49,0,18.44,2.35,23.87,7.04,5.43,4.69,8.14,11.13,8.14,19.32,0,2.02-.23,4.41-.69,7.17-1.1,6.17-3.52,11.75-7.24,16.77-3.73,5.01-8.65,8.99-14.77,11.94-6.12,2.94-13.13,4.42-21.04,4.42h-12.14ZM386.83,1351.42c.09-.55.14-1.29.14-2.21,0-4.51-2.71-6.76-8.14-6.76h-8.69l-3.17,17.94h8.69c6.35,0,10.07-2.99,11.18-8.97Z"/>
    <path class="cls-2" d="M530.4,1325c5.47,4.74,8.21,11.02,8.21,18.84,0,2.21-.19,4.23-.55,6.07-1.2,6.62-4.07,12.44-8.62,17.46-4.55,5.01-10.42,8.62-17.59,10.83l14.77,37.39h-33.67l-12.42-35.05-6.07,35.05h-30.63l17.11-97.69h45.54c10.49,0,18.47,2.37,23.94,7.11ZM484.11,1360.12h12.14c5.98,0,9.43-2.76,10.35-8.28.09-.46.14-1.06.14-1.79,0-2.02-.62-3.61-1.86-4.76-1.24-1.15-3.11-1.73-5.59-1.73h-12.14l-3.04,16.56Z"/>
    <path class="cls-2" d="M647.76,1321.69c6.81,3.64,12.01,8.74,15.59,15.32,3.59,6.58,5.38,14.19,5.38,22.84,0,3.59-.37,7.59-1.1,12-1.56,8.74-4.74,16.49-9.52,23.25-4.78,6.76-10.92,12.03-18.42,15.8-7.5,3.77-15.99,5.66-25.46,5.66s-17.75-1.79-24.56-5.38c-6.81-3.59-11.98-8.65-15.52-15.18-3.54-6.53-5.31-14.12-5.31-22.77,0-4.51.37-8.65,1.1-12.42,1.56-8.74,4.76-16.47,9.59-23.18,4.83-6.71,11.02-11.96,18.56-15.73,7.54-3.77,16.05-5.66,25.53-5.66s17.34,1.82,24.15,5.45ZM607.06,1349.97c-3.77,3.64-6.21,8.62-7.31,14.97-.37,1.84-.55,3.82-.55,5.93,0,5.34,1.45,9.52,4.35,12.56,2.9,3.04,7.2,4.55,12.9,4.55s10.46-1.84,14.28-5.52c3.82-3.68,6.23-8.6,7.24-14.77.37-1.93.55-3.95.55-6.07,0-5.43-1.45-9.64-4.35-12.63-2.9-2.99-7.15-4.48-12.76-4.48s-10.58,1.82-14.35,5.45Z"/>
    <path class="cls-2" d="M791.82,1317.89l-4.28,24.29h-25.94l-12.83,73.41h-30.63l12.83-73.41h-25.67l4.28-24.29h82.24Z"/>
    <path class="cls-2" d="M946.91,1321.34c5.89,2.95,10.33,7.02,13.32,12.21,2.99,5.2,4.62,11.11,4.9,17.73h-32.29c-.83-1.93-2.25-3.43-4.28-4.48-2.02-1.06-4.6-1.59-7.73-1.59-5.89,0-10.79,1.91-14.69,5.73-3.91,3.82-6.46,9.04-7.66,15.66-.46,2.58-.69,4.78-.69,6.62,0,5.43,1.52,9.48,4.55,12.14,3.04,2.67,7.73,4,14.07,4,7.08,0,13.29-2.85,18.63-8.56h-24.42l3.86-21.66h49.81l-5.38,30.63c-10.95,17.66-27.78,26.49-50.5,26.49-8.74,0-16.26-1.66-22.56-4.97-6.3-3.31-11.11-7.98-14.42-14.01-3.31-6.02-4.97-13.04-4.97-21.04,0-3.77.32-7.45.97-11.04,1.66-9.38,5.13-17.73,10.42-25.04,5.29-7.31,12.05-13.02,20.28-17.11,8.23-4.09,17.36-6.14,27.39-6.14,8.37,0,15.5,1.47,21.39,4.42Z"/>
    <path class="cls-2" d="M1027.63,1392.4h29.53l-4,23.18h-60.16l17.11-97.69h30.63l-13.11,74.51Z"/>
    <path class="cls-2" d="M1174.31,1321.69c6.81,3.64,12,8.74,15.59,15.32,3.59,6.58,5.38,14.19,5.38,22.84,0,3.59-.37,7.59-1.1,12-1.57,8.74-4.74,16.49-9.52,23.25-4.78,6.76-10.93,12.03-18.42,15.8-7.5,3.77-15.98,5.66-25.46,5.66s-17.76-1.79-24.56-5.38c-6.81-3.59-11.99-8.65-15.52-15.18-3.54-6.53-5.31-14.12-5.31-22.77,0-4.51.37-8.65,1.1-12.42,1.56-8.74,4.76-16.47,9.59-23.18,4.83-6.71,11.01-11.96,18.56-15.73,7.54-3.77,16.05-5.66,25.53-5.66s17.34,1.82,24.15,5.45ZM1133.61,1349.97c-3.77,3.64-6.21,8.62-7.31,14.97-.37,1.84-.55,3.82-.55,5.93,0,5.34,1.45,9.52,4.35,12.56,2.9,3.04,7.2,4.55,12.9,4.55s10.46-1.84,14.28-5.52c3.82-3.68,6.23-8.6,7.25-14.77.37-1.93.55-3.95.55-6.07,0-5.43-1.45-9.64-4.35-12.63-2.9-2.99-7.15-4.48-12.76-4.48s-10.58,1.82-14.35,5.45Z"/>
    <path class="cls-2" d="M1312.02,1357.7c-3.68,3.91-8.1,6.51-13.25,7.8,4.78,1.2,8.46,3.5,11.04,6.9,2.58,3.4,3.87,7.36,3.87,11.87,0,1.47-.14,2.99-.42,4.55-1.56,8.56-5.57,15.16-12,19.8-6.44,4.65-14.95,6.97-25.53,6.97h-51.19l17.11-97.69h49.81c8.92,0,15.85,1.7,20.77,5.11,4.92,3.4,7.38,8.42,7.38,15.04,0,1.1-.19,2.85-.55,5.24-1.01,5.71-3.36,10.51-7.03,14.42ZM1282.91,1382.47c0-3.49-2.35-5.24-7.04-5.24h-13.94l-2.48,13.8h13.94c2.85,0,5.04-.53,6.56-1.59,1.52-1.06,2.46-2.78,2.83-5.17.09-.46.14-1.06.14-1.79ZM1287.05,1347.28c0-3.4-2.39-5.11-7.18-5.11h-11.87l-2.34,13.8h11.87c2.76,0,4.9-.55,6.41-1.66,1.52-1.1,2.46-2.81,2.83-5.11.18-.92.28-1.56.28-1.93Z"/>
    <path class="cls-2" d="M1411.78,1400.82h-32.56l-7.45,14.77h-32.15l52.85-97.69h35.32l18.49,97.69h-32.29l-2.21-14.77ZM1408.33,1377.78l-4-27.18-13.66,27.18h17.66Z"/>
    <path class="cls-2" d="M1515.41,1392.4h29.53l-4,23.18h-60.16l17.11-97.69h30.63l-13.11,74.51Z"/>
    <path class="cls-2" d="M1715.35,1317.89l-4.28,24.29h-38.36l-2.34,13.52h27.6l-4,23.04h-27.6l-6.48,36.84h-30.63l17.11-97.69h68.99Z"/>
    <path class="cls-2" d="M1783.93,1317.89l-17.11,97.69h-30.63l17.11-97.69h30.63Z"/>
    <path class="cls-2" d="M1895.7,1357.7c-3.68,3.91-8.1,6.51-13.25,7.8,4.78,1.2,8.46,3.5,11.04,6.9,2.58,3.4,3.87,7.36,3.87,11.87,0,1.47-.14,2.99-.42,4.55-1.56,8.56-5.57,15.16-12,19.8-6.44,4.65-14.95,6.97-25.53,6.97h-51.19l17.11-97.69h49.81c8.92,0,15.85,1.7,20.77,5.11,4.92,3.4,7.38,8.42,7.38,15.04,0,1.1-.19,2.85-.55,5.24-1.01,5.71-3.36,10.51-7.03,14.42ZM1866.58,1382.47c0-3.49-2.35-5.24-7.04-5.24h-13.94l-2.48,13.8h13.94c2.85,0,5.04-.53,6.56-1.59,1.52-1.06,2.46-2.78,2.83-5.17.09-.46.14-1.06.14-1.79ZM1870.72,1347.28c0-3.4-2.39-5.11-7.18-5.11h-11.87l-2.34,13.8h11.87c2.76,0,4.9-.55,6.41-1.66,1.52-1.1,2.46-2.81,2.83-5.11.18-.92.28-1.56.28-1.93Z"/>
    <path class="cls-2" d="M1973.66,1342.18l-2.07,12.14h30.36l-4.14,23.04h-30.36l-2.34,13.8h34.5l-4.28,24.42h-65.13l17.11-97.69h65.13l-4.28,24.29h-34.5Z"/>
    <path class="cls-2" d="M2121.09,1325c5.47,4.74,8.21,11.02,8.21,18.84,0,2.21-.19,4.23-.55,6.07-1.19,6.62-4.07,12.44-8.62,17.46-4.55,5.01-10.42,8.62-17.59,10.83l14.77,37.39h-33.67l-12.42-35.05-6.07,35.05h-30.63l17.11-97.69h45.53c10.49,0,18.47,2.37,23.94,7.11ZM2074.8,1360.12h12.14c5.98,0,9.43-2.76,10.35-8.28.09-.46.14-1.06.14-1.79,0-2.02-.62-3.61-1.86-4.76-1.24-1.15-3.1-1.73-5.59-1.73h-12.14l-3.03,16.56Z"/>
  </g>
  <path class="cls-1" d="M1704.74,917.77l47.69-245.2h254.29l26.23-148.24h-255.43l30.79-176.75h297.03c5.12-25.66,16.96-106.41,23.63-155.08h-407.24c-46.87,0-86.96,33.67-95.06,79.84l-113.58,625.35c67.79,6.06,132.02,12.87,191.65,20.08Z"/>
  <path class="cls-1" d="M766.63,685.7c-2.63,20.19-6.6,40.31-11.68,59.99,6.72,26.87,16.37,51.92,29.04,75.11,10.58,19.38,23.03,37.01,37.29,52.94,163.41-3.79,316.13-.01,446.87,6.7,34.57,1.77,68.61,3.81,102.06,6.06,61.01-46.8,107.56-105.93,139.59-177.45l33.07-192.71h-408.23l-25.09,140.26h246.31c-22.8,47.15-53.99,83.44-93.5,108.9-39.54,25.48-82.5,38.2-128.86,38.2-61.58,0-108.53-15-140.83-45.04-32.32-30.02-48.46-73.55-48.46-130.57,0-22.81,1.89-43.71,5.7-62.72,12.15-70.7,40.66-126.75,85.52-168.19,44.85-41.43,98.07-62.15,159.64-62.15,39.52,0,71.84,8.55,96.92,25.66,25.09,17.1,42.19,40.11,51.32,68.99h205.25c-6.09-82.1-36.88-148.42-92.36-198.98-55.5-50.55-132.67-75.83-231.48-75.83-80.59,0-154.33,17.1-221.22,51.31-66.9,34.21-122.21,81.73-165.91,142.54-42.65,59.33-70.95,126.62-85.01,201.85,16.17,37.09,20.9,82.5,14.06,135.13Z"/>
  <path class="cls-1" d="M133.12,823.15c3.89,12.5,8.76,24.37,14.6,35.62,7.79,14.99,17.32,28.87,28.59,41.64,2.82,3.19,5.72,6.29,8.73,9.28,6.71,6.69,13.94,12.81,21.58,18.5,142.06-23.59,286.01-38.28,425.61-46.65,6.83-6.52,13.36-13.31,19.57-20.4,23.1-26.39,41.04-54.96,53.8-85.71,2.13-5.12,4.11-10.31,5.95-15.56,1.84-5.25,3.54-10.55,5.09-15.92,4.28-15.45,7.75-31.14,10.4-47.08.88-5.31,1.67-10.65,2.37-16.02,3.58-27.52,3.68-52.33.29-74.42-1.88-12.27-4.83-23.71-8.86-34.31-1.61-4.24-3.39-8.34-5.35-12.32-1.96-3.97-3.98-7.83-6.08-11.57-4.19-7.5-8.67-14.55-13.43-21.16-7.14-9.92-14.91-18.84-23.32-26.77-5.61-5.29-11.5-10.13-17.67-14.53-12.35-8.79-26.71-17.86-43.08-27.19-16.37-9.34-34.74-18.94-55.12-28.82-3.66-1.82-7.21-3.61-10.66-5.35-20.67-10.46-37.46-19.47-50.36-27.04-2.15-1.26-4.19-2.48-6.13-3.67-5.81-3.54-11.18-7.41-16.11-11.62-3.48-2.97-6.73-6.13-9.76-9.43-2.69-2.93-5.22-5.97-7.56-9.16-1.25-1.7-2.44-3.43-3.59-5.2-2.3-3.54-4.23-7.26-5.79-11.14-1.56-3.89-2.76-7.95-3.58-12.19-.83-4.24-1.29-8.65-1.38-13.24-.09-4.59.18-9.35.83-14.29,1.42-10.94,3.87-20.95,7.35-30.02,2.32-6.05,5.09-11.68,8.32-16.9,1.62-2.61,3.35-5.11,5.19-7.52,3.69-4.8,7.84-9.19,12.44-13.17,17.25-14.88,37.45-22.8,60.58-23.73,1.54-.06,3.1-.09,4.66-.09,13.68,0,25.42,2.2,35.2,6.61,3.67,1.65,7.06,3.61,10.19,5.88,5.2,3.78,9.65,8.42,13.33,13.91,1.47,2.2,2.81,4.5,4.01,6.89,1.2,2.39,2.27,4.89,3.2,7.48.93,2.59,1.73,5.28,2.4,8.06,1.66,6.96,2.49,14.52,2.47,22.7,0,1.63-.04,3.29-.11,4.98-.2,4.85-.69,9.92-1.45,15.17-.07.51-.15,1.03-.23,1.55-.24,1.53-.48,3.08-.76,4.64h209.82c1.6-15.61,2.33-30.61,2.18-45-.64-62.36-17.7-113.25-51.17-152.66-7.28-8.56-15.44-16.32-24.39-23.37-8.38-6.59-17.52-12.5-27.36-17.77-3.69-1.98-7.48-3.86-11.37-5.65-37.53-17.26-84.56-25.96-141.23-25.96-77.54,0-146.61,19.54-207.17,58.59-3.79,2.44-7.49,4.94-11.12,7.49-54.38,38.26-90.63,88.76-108.77,151.54-1.4,4.94-2.72,9.93-3.95,14.98-2.45,10.09-4.55,20.39-6.3,30.9-.87,5.26-1.66,10.57-2.36,15.93-.39,3.01-.74,5.98-1.05,8.92-.62,5.88-1.07,11.64-1.35,17.27-.29,5.63-.41,11.13-.36,16.5.02,2.84.1,5.63.21,8.4.2,4.85.55,9.6,1.03,14.23.6,5.74,1.43,11.3,2.46,16.7.7,3.65,1.5,7.22,2.4,10.72.27,1.06.55,2.12.84,3.17.94,3.39,1.98,6.7,3.11,9.94.48,1.36.98,2.71,1.49,4.04,1.29,3.37,2.65,6.67,4.15,9.87,13,27.8,29.78,50.17,50.33,67.11,2.93,2.42,5.95,4.73,9.03,6.93,7.71,5.5,16.22,11.11,25.5,16.82,20.43,12.56,44.67,25.63,72.69,39.2,30.03,14.61,52.93,27.04,68.69,37.34,3.94,2.58,7.68,5.3,11.23,8.17,10.64,8.61,19.5,18.56,26.59,29.82,2.36,3.76,4.34,7.72,5.94,11.88.8,2.08,1.5,4.21,2.11,6.39,2.43,8.72,3.33,18.24,2.7,28.57-.16,2.58-.41,5.21-.76,7.89-.73,5.64-1.74,11.08-3.02,16.32-.86,3.5-1.83,6.9-2.93,10.22-1.1,3.32-2.32,6.55-3.67,9.7-3.36,7.86-7.49,15.18-12.38,21.95-.98,1.35-1.99,2.69-3.03,4-3.12,3.93-6.51,7.67-10.18,11.21-9.78,9.45-20.54,16.53-32.27,21.25-1.47.59-2.95,1.14-4.45,1.66-10.48,3.61-21.71,5.42-33.68,5.42-30.41,0-52.31-9.86-65.71-29.62-1.67-2.47-3.19-5.05-4.55-7.74-9.52-18.87-11.33-43.33-5.42-73.38H124.5c-3.95,32.52-3.99,62.53-.12,90.04,1.93,13.75,4.85,26.88,8.74,39.38Z"/>
  <path class="cls-1" d="M545.22,1007.89c-32.97.81-61.8,18.33-78.26,44.47h-187.26c-3.72-9.17-12.69-15.65-23.2-15.65-13.83,0-25.03,11.21-25.03,25.03s11.21,25.03,25.03,25.03c10.5,0,19.48-6.48,23.2-15.65h337.32c3.43,7.45,5.72,15.53,6.59,24.02h-282.06c-3.72-9.17-12.69-15.65-23.2-15.65-13.83,0-25.03,11.21-25.03,25.03s11.21,25.04,25.03,25.04c10.5,0,19.48-6.48,23.2-15.65h281.68c-1.18,8.21-3.67,15.99-7.24,23.15h-220.87c-3.72-9.17-12.69-15.65-23.2-15.65-13.83,0-25.03,11.21-25.03,25.03s11.21,25.03,25.03,25.03c10.5,0,19.48-6.48,23.2-15.65h73.29c16.5,24.68,44.21,41.19,75.87,42.27l-.24.11,1020.73,25.85c46.87.41,87.25-32.91,95.75-79l26.55-136.52-1141.86-.69ZM490.45,1052.36c14.01-15.78,34.42-25.77,57.13-25.77s43.15,9.98,57.17,25.77h-114.3ZM547.58,1179.47c-21.66,0-41.23-9.08-55.15-23.61h110.31c-13.92,14.53-33.5,23.61-55.16,23.61Z"/>
  <path class="cls-3" d="M1925.39,977.91c-156.07-26.76-392.04-55.69-659.48-69.41-315.63-16.2-760.14-15.24-1171.65,69.41h1831.13Z"/>
</svg>